<svg id="Layer_1" data-name="Layer 1" xmlns="http://www.w3.org/2000/svg" viewBox="0 0 500 62.15"><defs><style>.cls-1{fill:#76ff03;}.cls-2{fill:#673ab7;}.cls-3{fill:#fff;}</style></defs><title>logo</title><path class="cls-1" d="M0,29.25a5.83,5.83,0,0,0,2.63-.55,5.74,5.74,0,0,0,1.83-1.41,5.65,5.65,0,0,0,1.09-2A7.57,7.57,0,0,0,5.9,23V11.46a17.35,17.35,0,0,1,.58-4.69,7.56,7.56,0,0,1,2-3.43,9.24,9.24,0,0,1,3.76-2.12A19.6,19.6,0,0,1,18,.48h.26V5.17q-3.66,0-5.23,1.32t-1.57,5v9.89A15.34,15.34,0,0,1,10.36,28a8.53,8.53,0,0,1-3.18,3.6,8.54,8.54,0,0,1,3.18,3.6,15.34,15.34,0,0,1,1.12,6.55v9.89q0,3.72,1.57,5t5.23,1.32v4.69H18a20.43,20.43,0,0,1-5.81-.71,8.78,8.78,0,0,1-3.76-2.12,7.79,7.79,0,0,1-2-3.47,17.35,17.35,0,0,1-.58-4.69V40.1a7.58,7.58,0,0,0-.35-2.28,5.66,5.66,0,0,0-1.09-2,5.75,5.75,0,0,0-1.83-1.41A5.84,5.84,0,0,0,0,33.87Z" transform="translate(0 -0.48)"/><path class="cls-2" d="M49.49,46.33q9.76,0,9.76-6.68a6.68,6.68,0,0,0-.87-3.5A8.39,8.39,0,0,0,56,33.65a16.31,16.31,0,0,0-3.37-1.83q-1.89-.77-4-1.54A40.65,40.65,0,0,1,44,28.38a16.15,16.15,0,0,1-3.79-2.5,10.61,10.61,0,0,1-2.54-3.43,11.29,11.29,0,0,1-.93-4.82,11.15,11.15,0,0,1,4-9.12q4-3.27,11-3.27a29,29,0,0,1,7.35.87A16.82,16.82,0,0,1,63.94,8l-2,5.07a17.62,17.62,0,0,0-4-1.64,21.56,21.56,0,0,0-6.2-.8A13.74,13.74,0,0,0,48.4,11a8.56,8.56,0,0,0-2.7,1.16,5.72,5.72,0,0,0-1.83,2,5.57,5.57,0,0,0-.67,2.79,5.93,5.93,0,0,0,.71,3,7,7,0,0,0,2,2.15,17,17,0,0,0,3,1.7q1.7.77,3.76,1.54,2.89,1.16,5.3,2.31a17.28,17.28,0,0,1,4.17,2.76,11.07,11.07,0,0,1,2.73,3.82,13.41,13.41,0,0,1,1,5.36,10.49,10.49,0,0,1-4.27,9q-4.27,3.15-12,3.15a31,31,0,0,1-4.85-.35,36.18,36.18,0,0,1-3.95-.83,22.79,22.79,0,0,1-3-1q-1.25-.55-2-.93l1.86-5.14a27.94,27.94,0,0,0,4.49,1.86A23.08,23.08,0,0,0,49.49,46.33Z" transform="translate(0 -0.48)"/><path class="cls-2" d="M97.64,20.58q-2.7,8.6-5.46,15.92T86.67,50.76H80.44Q77,40.93,74.44,30T69.59,6.26h6.55q.9,5,1.86,10T80,26q1,4.72,2.05,9t2.12,8q2.57-6.74,5.46-14.8T95,11.53h5.39q2.5,8.6,5.46,16.66T111.38,43q1-3.59,2.05-7.9t2-9q1-4.72,2-9.76t1.86-10h6.36Q123.33,19.1,120.73,30t-5.94,20.74h-6.23Q105.73,43.82,103,36.5T97.64,20.58Z" transform="translate(0 -0.48)"/><path class="cls-2" d="M161.53,50.76q-1.09-2.89-2.05-5.68t-2-5.68H137.32l-4,11.36h-6.48q2.57-7.06,4.82-13.07t4.4-11.4q2.15-5.39,4.27-10.3t4.43-9.73h5.71q2.31,4.82,4.43,9.73t4.27,10.3q2.15,5.39,4.4,11.4t4.82,13.07Zm-5.84-16.5q-2.06-5.59-4.08-10.82t-4.21-10q-2.25,4.82-4.27,10t-4,10.82Z" transform="translate(0 -0.48)"/><path class="cls-2" d="M200.3,28.86h6.23v20.8q-.77.26-2.21.58t-3.34.64q-1.89.32-4.14.55t-4.56.22a22.81,22.81,0,0,1-8.54-1.54,18.15,18.15,0,0,1-6.61-4.49,20.28,20.28,0,0,1-4.27-7.25,29.8,29.8,0,0,1-1.51-9.89,27,27,0,0,1,1.7-9.92,21.5,21.5,0,0,1,4.59-7.29,19.35,19.35,0,0,1,6.77-4.49,22.34,22.34,0,0,1,8.31-1.54,33.33,33.33,0,0,1,5.36.39,31,31,0,0,1,4,.9,19.74,19.74,0,0,1,2.73,1,14.35,14.35,0,0,1,1.44.77l-2,5.2a16.83,16.83,0,0,0-4.94-2,24.88,24.88,0,0,0-6.29-.8,15.32,15.32,0,0,0-6.2,1.22,12.92,12.92,0,0,0-4.75,3.53,16.64,16.64,0,0,0-3,5.62A23.57,23.57,0,0,0,178,28.48a26.47,26.47,0,0,0,.93,7.25,15.58,15.58,0,0,0,2.82,5.62A12.81,12.81,0,0,0,186.4,45,15.62,15.62,0,0,0,193,46.26a31,31,0,0,0,4.59-.29,21.15,21.15,0,0,0,2.73-.55Z" transform="translate(0 -0.48)"/><path class="cls-2" d="M243.45,28.86h6.23v20.8q-.77.26-2.21.58t-3.34.64q-1.89.32-4.14.55t-4.56.22a22.81,22.81,0,0,1-8.54-1.54,18.15,18.15,0,0,1-6.61-4.49A20.28,20.28,0,0,1,216,38.36a29.8,29.8,0,0,1-1.51-9.89,27,27,0,0,1,1.7-9.92,21.5,21.5,0,0,1,4.59-7.29,19.35,19.35,0,0,1,6.77-4.49,22.34,22.34,0,0,1,8.31-1.54,33.33,33.33,0,0,1,5.36.39,31,31,0,0,1,4,.9,19.74,19.74,0,0,1,2.73,1,14.35,14.35,0,0,1,1.44.77l-2,5.2a16.83,16.83,0,0,0-4.94-2,24.88,24.88,0,0,0-6.29-.8,15.32,15.32,0,0,0-6.2,1.22,12.92,12.92,0,0,0-4.75,3.53,16.64,16.64,0,0,0-3,5.62,23.57,23.57,0,0,0-1.09,7.42,26.47,26.47,0,0,0,.93,7.25,15.58,15.58,0,0,0,2.82,5.62A12.81,12.81,0,0,0,229.55,45a15.62,15.62,0,0,0,6.58,1.28,31,31,0,0,0,4.59-.29,21.15,21.15,0,0,0,2.73-.55Z" transform="translate(0 -0.48)"/><path class="cls-2" d="M257.63,28.48a27.64,27.64,0,0,1,1.7-10.08A20.84,20.84,0,0,1,264,11.11a19.13,19.13,0,0,1,6.81-4.4A23,23,0,0,1,279,5.24a22.34,22.34,0,0,1,8.12,1.48,19,19,0,0,1,6.71,4.4,21.11,21.11,0,0,1,4.59,7.29,27.65,27.65,0,0,1,1.7,10.08,27.64,27.64,0,0,1-1.7,10.08,21.09,21.09,0,0,1-4.59,7.29,18.93,18.93,0,0,1-6.71,4.4A22.34,22.34,0,0,1,279,51.72a23,23,0,0,1-8.25-1.48,19.1,19.1,0,0,1-6.81-4.4,20.82,20.82,0,0,1-4.62-7.29A27.63,27.63,0,0,1,257.63,28.48Zm6.55,0a24.7,24.7,0,0,0,1,7.35,16.42,16.42,0,0,0,2.92,5.62A12.78,12.78,0,0,0,272.75,45a14.53,14.53,0,0,0,6.13,1.25A14.32,14.32,0,0,0,285,45a12.87,12.87,0,0,0,4.59-3.56,16.46,16.46,0,0,0,2.92-5.62,24.73,24.73,0,0,0,1-7.35,24.74,24.74,0,0,0-1-7.35,16.47,16.47,0,0,0-2.92-5.62A12.87,12.87,0,0,0,285,11.94a14.32,14.32,0,0,0-6.1-1.25,14.53,14.53,0,0,0-6.13,1.25,12.79,12.79,0,0,0-4.62,3.56,16.43,16.43,0,0,0-2.92,5.62A24.7,24.7,0,0,0,264.18,28.48Z" transform="translate(0 -0.48)"/><path class="cls-2" d="M329.35,44.59q-.64-1.54-1.7-3.92l-2.28-5.14q-1.22-2.76-2.6-5.68l-2.6-5.52q-1.22-2.6-2.28-4.65t-1.7-3.15q-.71,7.58-1.16,16.4t-.77,17.82h-6.1q.26-5.78.58-11.65t.74-11.56q.42-5.68.9-11.07t1.06-10.21h5.46q1.73,2.83,3.72,6.68t4,8.06q2,4.21,3.85,8.41l3.4,7.67,3.4-7.67q1.86-4.2,3.85-8.41t4-8.06q2-3.85,3.72-6.68h5.46q2.18,21.51,3.27,44.49h-6.1q-.32-9-.77-17.82t-1.16-16.4q-.64,1.09-1.7,3.15t-2.28,4.65l-2.6,5.52q-1.38,2.92-2.6,5.68l-2.28,5.14q-1.06,2.38-1.7,3.92Z" transform="translate(0 -0.48)"/><path class="cls-2" d="M395.8,50.76q-1.41-2.37-3.24-5.33t-3.95-6.13q-2.12-3.18-4.4-6.45t-4.53-6.32q-2.25-3-4.37-5.75T371.4,16V50.76h-6.1V6.26h4.94q3,3.21,6.45,7.48t6.81,8.8q3.37,4.53,6.36,8.89t5,7.77V6.26H401V50.76Z" transform="translate(0 -0.48)"/><path class="cls-2" d="M412,6.26h6.23V50.76H412Z" transform="translate(0 -0.48)"/><path class="cls-2" d="M459,50.76q-1.09-2.89-2.05-5.68t-2-5.68H434.83l-4,11.36H424.3q2.57-7.06,4.82-13.07t4.4-11.4q2.15-5.39,4.27-10.3t4.43-9.73h5.71q2.31,4.82,4.43,9.73t4.27,10.3q2.15,5.39,4.4,11.4t4.82,13.07Zm-5.84-16.5q-2.06-5.59-4.08-10.82t-4.21-10q-2.25,4.82-4.27,10t-4,10.82Z" transform="translate(0 -0.48)"/><path class="cls-1" d="M500,33.87a5.84,5.84,0,0,0-2.63.55,5.74,5.74,0,0,0-1.83,1.41,5.63,5.63,0,0,0-1.09,2,7.55,7.55,0,0,0-.35,2.28V51.65a17.34,17.34,0,0,1-.58,4.69,7.8,7.8,0,0,1-2,3.47,8.8,8.8,0,0,1-3.76,2.12,20.43,20.43,0,0,1-5.81.71h-.26V57.95q3.66,0,5.23-1.32t1.57-5V41.7a15.33,15.33,0,0,1,1.12-6.55,8.52,8.52,0,0,1,3.18-3.6,8.52,8.52,0,0,1-3.18-3.6,15.33,15.33,0,0,1-1.12-6.55V11.53q0-3.72-1.57-5T481.7,5.17V.48H482a19.6,19.6,0,0,1,5.81.74,9.25,9.25,0,0,1,3.76,2.12,7.57,7.57,0,0,1,2,3.43,17.34,17.34,0,0,1,.58,4.69V23a7.54,7.54,0,0,0,.35,2.28,5.62,5.62,0,0,0,1.09,2,5.72,5.72,0,0,0,1.83,1.41,5.83,5.83,0,0,0,2.63.55Z" transform="translate(0 -0.48)"/><path class="cls-3" d="M264.18,28.4a24.09,24.09,0,0,1,1.18-7.89,16.68,16.68,0,0,1,3.21-5.7,13.24,13.24,0,0,1,4.73-3.44A14.4,14.4,0,0,1,279,10.22a14,14,0,0,1,5.64,1.16,13.15,13.15,0,0,1,4.66,3.44,16.91,16.91,0,0,1,3.19,5.7,24.1,24.1,0,0,1,1.18,7.89,24.1,24.1,0,0,1-1.18,7.89,16.9,16.9,0,0,1-3.19,5.7,13.13,13.13,0,0,1-4.66,3.44A14,14,0,0,1,279,46.58a14.4,14.4,0,0,1-5.73-1.16A13.22,13.22,0,0,1,268.58,42a16.67,16.67,0,0,1-3.21-5.7A24.08,24.08,0,0,1,264.18,28.4Z" transform="translate(0 -0.48)"/><circle class="cls-1" cx="24.34" cy="31.58" r="5.53"/><circle class="cls-1" cx="474.99" cy="31.58" r="5.53"/><path class="cls-2" d="M290.8,21.18a14.69,14.69,0,0,0-2.78-5,11.45,11.45,0,0,0-4.06-3,12.21,12.21,0,0,0-4.91-1,12.91,12.91,0,0,0-2.86.32c2.45,2.11,3.62,5.27,2.1,7.93-1.82,3.19-5.41,3.89-8.88,1.92a9.77,9.77,0,0,1-2.12-1.62l-.15.39a23.26,23.26,0,0,0-1,7.22,20.87,20.87,0,0,0,1,6.85,14.47,14.47,0,0,0,2.8,5,11.51,11.51,0,0,0,4.12,3,12.57,12.57,0,0,0,5,1,12.21,12.21,0,0,0,4.91-1,11.43,11.43,0,0,0,4.06-3,14.67,14.67,0,0,0,2.78-5,20.89,20.89,0,0,0,1-6.85A23.27,23.27,0,0,0,290.8,21.18Z" transform="translate(0 -0.48)"/></svg>